<svg width="350.68070613714px" height="126.2430646685802px" xmlns="http://www.w3.org/2000/svg" viewBox="74.65964693142999 11.878467665709898 350.68070613714 126.2430646685802" style="background: rgba(0, 0, 0, 0) none repeat scroll 0% 0%;" preserveAspectRatio="xMidYMid"><defs><filter id="editing-hover" x="-100%" y="-100%" width="300%" height="300%"><feFlood flood-color="#052b4a" result="flood"></feFlood><feComposite operator="in" in2="SourceAlpha" in="flood" result="shadow"></feComposite><feOffset dx="-2" dy="-2.6" in="SourceGraphic" result="offset-1"></feOffset><feOffset dx="2" dy="2.6" in="shadow" result="offset-2"></feOffset><feMerge><feMergeNode in="offset-2"></feMergeNode><feMergeNode in="offset-1"></feMergeNode></feMerge></filter></defs><g filter="url(#editing-hover)"><g transform="translate(129.015625, 97.404296875)"><path d="M12.16-6.41L28.53-6.41L28.53-6.41Q33-6.41 35.41-8.81L35.41-8.81L35.41-8.81Q37.81-11.22 37.81-15.69L37.81-15.69L37.81-29.13L37.81-29.13Q37.81-31.31 37.19-33.03L37.19-33.03L37.19-33.03Q36.56-34.75 35.36-35.95L35.36-35.95L35.36-35.95Q34.16-37.16 32.44-37.78L32.44-37.78L32.44-37.78Q30.72-38.41 28.53-38.41L28.53-38.41L12.16-38.41L12.16-6.41ZM28.53 0L5.75 0L5.75-44.81L28.53-44.81L28.53-44.81Q32.13-44.81 35.02-43.70L35.02-43.70L35.02-43.70Q37.91-42.59 39.95-40.55L39.95-40.55L39.95-40.55Q42-38.50 43.11-35.59L43.11-35.59L43.11-35.59Q44.22-32.69 44.22-29.13L44.22-29.13L44.22-15.69L44.22-15.69Q44.22-12.13 43.11-9.22L43.11-9.22L43.11-9.22Q42-6.31 39.95-4.27L39.95-4.27L39.95-4.27Q37.91-2.22 35.02-1.11L35.02-1.11L35.02-1.11Q32.13 0 28.53 0L28.53 0ZM54.47-6.41L54.47-44.81L60.88-44.81L60.88-6.41L86.47-6.41L86.47-44.81L92.88-44.81L92.88-6.41L92.88-6.41Q92.88-5.09 92.38-3.92L92.38-3.92L92.38-3.92Q91.88-2.75 91-1.88L91-1.88L91-1.88Q90.13-1 88.95-0.50L88.95-0.50L88.95-0.50Q87.78 0 86.47 0L86.47 0L60.88 0L60.88 0Q59.56 0 58.39-0.50L58.39-0.50L58.39-0.50Q57.22-1 56.34-1.88L56.34-1.88L56.34-1.88Q55.47-2.75 54.97-3.92L54.97-3.92L54.97-3.92Q54.47-5.09 54.47-6.41L54.47-6.41ZM142.78-38.41L142.78-6.41L142.78-6.41Q142.78-5.09 142.28-3.92L142.28-3.92L142.28-3.92Q141.78-2.75 140.91-1.88L140.91-1.88L140.91-1.88Q140.03-1 138.86-0.50L138.86-0.50L138.86-0.50Q137.69 0 136.38 0L136.38 0L110.78 0L110.78 0Q109.47 0 108.30-0.50L108.30-0.50L108.30-0.50Q107.13-1 106.25-1.88L106.25-1.88L106.25-1.88Q105.38-2.75 104.88-3.92L104.88-3.92L104.88-3.92Q104.38-5.09 104.38-6.41L104.38-6.41L104.38-38.41L104.38-38.41Q104.38-39.72 104.88-40.89L104.88-40.89L104.88-40.89Q105.38-42.06 106.25-42.92L106.25-42.92L106.25-42.92Q107.13-43.78 108.30-44.30L108.30-44.30L108.30-44.30Q109.47-44.81 110.78-44.81L110.78-44.81L136.38-44.81L136.38-44.81Q137.69-44.81 138.86-44.30L138.86-44.30L138.86-44.30Q140.03-43.78 140.91-42.92L140.91-42.92L140.91-42.92Q141.78-42.06 142.28-40.89L142.28-40.89L142.28-40.89Q142.78-39.72 142.78-38.41L142.78-38.41ZM136.38-38.41L110.78-38.41L110.78-6.41L136.38-6.41L136.38-38.41ZM149.81-44.81L157.25-44.81L170.28-23.88L183.34-44.81L190.78-44.81L173.50-17.78L173.50 0L167.09 0L167.09-17.78L149.81-44.81ZM236.22-38.41L236.22-6.41L236.22-6.41Q236.22-5.09 235.72-3.92L235.72-3.92L235.72-3.92Q235.22-2.75 234.34-1.88L234.34-1.88L234.34-1.88Q233.47-1 232.30-0.50L232.30-0.50L232.30-0.50Q231.13 0 229.81 0L229.81 0L204.22 0L204.22 0Q202.91 0 201.73-0.50L201.73-0.50L201.73-0.50Q200.56-1 199.69-1.88L199.69-1.88L199.69-1.88Q198.81-2.75 198.31-3.92L198.31-3.92L198.31-3.92Q197.81-5.09 197.81-6.41L197.81-6.41L197.81-38.41L197.81-38.41Q197.81-39.72 198.31-40.89L198.31-40.89L198.31-40.89Q198.81-42.06 199.69-42.92L199.69-42.92L199.69-42.92Q200.56-43.78 201.73-44.30L201.73-44.30L201.73-44.30Q202.91-44.81 204.22-44.81L204.22-44.81L229.81-44.81L229.81-44.81Q231.13-44.81 232.30-44.30L232.30-44.30L232.30-44.30Q233.47-43.78 234.34-42.92L234.34-42.92L234.34-42.92Q235.22-42.06 235.72-40.89L235.72-40.89L235.72-40.89Q236.22-39.72 236.22-38.41L236.22-38.41ZM229.81-38.41L204.22-38.41L204.22-6.41L229.81-6.41L229.81-38.41Z" fill="#ffd5af"></path></g></g><style>text {
  font-size: 64px;
  font-family: Arial Black;
  dominant-baseline: central;
  text-anchor: middle;
}</style></svg>